<svg xmlns="http://www.w3.org/2000/svg" xmlns:xlink="http://www.w3.org/1999/xlink" zoomAndPan="magnify"
    viewBox="0 0 52.5 35.25" preserveAspectRatio="xMidYMid meet" version="1.0">
    <defs>
        <clipPath id="f8130c24ce">
            <path d="M 1.0625 0 L 34 0 L 34 23 L 1.0625 23 Z M 1.0625 0 " clip-rule="nonzero" />
        </clipPath>
        <clipPath id="d42c6c8343">
            <path
                d="M 18.105469 11.027344 L 50.886719 11.027344 L 50.886719 33.734375 L 18.105469 33.734375 Z M 18.105469 11.027344 "
                clip-rule="nonzero" />
        </clipPath>
        <clipPath id="6a4f7622e8">
            <path
                d="M 1.117188 11.027344 L 33.898438 11.027344 L 33.898438 33.734375 L 1.117188 33.734375 Z M 1.117188 11.027344 "
                clip-rule="nonzero" />
        </clipPath>
    </defs>
    <g clip-path="url(#f8130c24ce)">
        <path fill="#043dce"
            d="M 27.296875 0 L 18.132812 0 L 1.117188 22.679688 L 16.851562 22.679688 L 33.871094 0 L 27.296875 0 "
            fill-opacity="1" fill-rule="nonzero" />
    </g>
    <g clip-path="url(#d42c6c8343)">
        <path fill="#6515d8"
            d="M 44.316406 11.054688 L 35.152344 11.054688 L 18.132812 33.734375 L 33.871094 33.734375 L 50.886719 11.054688 L 44.316406 11.054688 "
            fill-opacity="1" fill-rule="nonzero" />
    </g>
    <g clip-path="url(#6a4f7622e8)">
        <path fill="#8d3cff"
            d="M 16.851562 11.054688 L 1.117188 11.054688 L 18.132812 33.734375 L 33.871094 33.734375 L 16.851562 11.054688 "
            fill-opacity="1" fill-rule="nonzero" />
    </g>
    <path fill="#297eff" d="M 33.871094 0 L 18.132812 0 L 35.152344 22.679688 L 50.886719 22.679688 L 33.871094 0 "
        fill-opacity="1" fill-rule="nonzero" />
</svg>