<svg xmlns="http://www.w3.org/2000/svg" xmlns:xlink="http://www.w3.org/1999/xlink" width="436" viewBox="0 0 327 36.000001" height="48"  version="1.0">
    <defs>
        <g />
        <clipPath id="77335e3d2e">
            <path d="M 4.417969 0.730469 L 39 0.730469 L 39 25 L 4.417969 25 Z M 4.417969 0.730469 "
                clip-rule="nonzero" />
        </clipPath>
        <clipPath id="03efba2a96">
            <path
                d="M 22.09375 12.160156 L 56.074219 12.160156 L 56.074219 35.027344 L 22.09375 35.027344 Z M 22.09375 12.160156 "
                clip-rule="nonzero" />
        </clipPath>
        <clipPath id="282df30468">
            <path
                d="M 4.484375 12.160156 L 38.464844 12.160156 L 38.464844 35.027344 L 4.484375 35.027344 Z M 4.484375 12.160156 "
                clip-rule="nonzero" />
        </clipPath>
        <clipPath id="bd399b186f">
            <path d="M 22 0.730469 L 56.230469 0.730469 L 56.230469 25 L 22 25 Z M 22 0.730469 " clip-rule="nonzero" />
        </clipPath>
    </defs>
    <g clip-path="url(#77335e3d2e)">
        <path fill="#043dce"
            d="M 31.621094 0.730469 L 22.121094 0.730469 L 4.484375 24.238281 L 20.796875 24.238281 L 38.433594 0.730469 L 31.621094 0.730469 "
            fill-opacity="1" fill-rule="nonzero" />
    </g>
    <g clip-path="url(#03efba2a96)">
        <path fill="#6515d8"
            d="M 49.261719 12.191406 L 39.761719 12.191406 L 22.121094 35.699219 L 38.433594 35.699219 L 56.074219 12.191406 L 49.261719 12.191406 "
            fill-opacity="1" fill-rule="nonzero" />
    </g>
    <g clip-path="url(#282df30468)">
        <path fill="#8d3cff"
            d="M 20.796875 12.191406 L 4.484375 12.191406 L 22.121094 35.699219 L 38.433594 35.699219 L 20.796875 12.191406 "
            fill-opacity="1" fill-rule="nonzero" />
    </g>
    <g clip-path="url(#bd399b186f)">
        <path fill="#297eff"
            d="M 38.433594 0.730469 L 22.121094 0.730469 L 39.761719 24.238281 L 56.074219 24.238281 L 38.433594 0.730469 "
            fill-opacity="1" fill-rule="nonzero" />
    </g>
    <g fill="#17171a" fill-opacity="1">
        <g transform="translate(60.925333, 28.785997)">
            <g>
                <path
                    d="M 26.734375 0 L 16.25 -23.671875 L 10.796875 -23.671875 L 0.40625 0 L 5.21875 0 L 7.765625 -6.015625 L 19.328125 -6.015625 L 21.890625 0 Z M 17.65625 -9.953125 L 9.453125 -9.953125 L 13.546875 -19.4375 Z M 17.65625 -9.953125 " />
            </g>
        </g>
    </g>
    <g fill="#17171a" fill-opacity="1">
        <g transform="translate(90.026114, 28.785997)">
            <g>
                <path
                    d="M 14.21875 -9.34375 L 20.015625 -9.34375 L 20.015625 -4.96875 C 18.265625 -4.296875 16.28125 -3.90625 14.59375 -3.90625 C 9.453125 -3.90625 5.921875 -6.5625 5.921875 -11.796875 L 5.921875 -11.84375 C 5.921875 -17.140625 9.546875 -19.796875 14.859375 -19.796875 C 17.71875 -19.796875 20.4375 -19.0625 22.390625 -17.828125 L 24.25 -21.828125 C 21.34375 -23.328125 17.984375 -24.078125 14.6875 -24.078125 C 6.390625 -24.078125 1.203125 -19.265625 1.203125 -11.84375 L 1.203125 -11.796875 C 1.203125 -4.4375 6.296875 0.375 14.390625 0.375 C 17.546875 0.375 21.890625 -0.46875 24.484375 -1.875 L 24.484375 -13.015625 L 14.21875 -13.015625 Z M 14.21875 -9.34375 " />
            </g>
        </g>
    </g>
    <g fill="#17171a" fill-opacity="1">
        <g transform="translate(118.192876, 28.785997)">
            <g>
                <path d="M 6.1875 0 L 6.1875 -23.671875 L 1.578125 -23.671875 L 1.578125 0 Z M 6.1875 0 " />
            </g>
        </g>
    </g>
    <g fill="#17171a" fill-opacity="1">
        <g transform="translate(127.941938, 28.785997)">
            <g>
                <path
                    d="M 19.609375 0 L 19.609375 -4.296875 L 6.1875 -4.296875 L 6.1875 -23.671875 L 1.578125 -23.671875 L 1.578125 0 Z M 19.609375 0 " />
            </g>
        </g>
    </g>
    <g fill="#17171a" fill-opacity="1">
        <g transform="translate(150.125139, 28.785997)">
            <g>
                <path
                    d="M 19.8125 0 L 19.8125 -4.296875 L 6.15625 -4.296875 L 6.15625 -10.0625 L 18.734375 -10.0625 L 18.734375 -14.125 L 6.15625 -14.125 L 6.15625 -19.375 L 19.765625 -19.375 L 19.765625 -23.671875 L 1.609375 -23.671875 L 1.609375 0 Z M 19.8125 0 " />
            </g>
        </g>
    </g>
    <g fill="#17171a" fill-opacity="1">
        <g transform="translate(173.096418, 28.785997)">
            <g />
        </g>
    </g>
    <g fill="#17171a" fill-opacity="1">
        <g transform="translate(180.743939, 28.785997)">
            <g>
                <path
                    d="M 28.109375 -11.875 C 28.109375 -18.96875 22.828125 -24.078125 14.65625 -24.078125 C 6.484375 -24.078125 1.203125 -18.96875 1.203125 -11.875 L 1.203125 -11.84375 C 1.203125 -4.75 6.484375 0.375 14.65625 0.375 C 15.96875 0.375 17.1875 0.234375 18.359375 0 L 21.515625 4.640625 L 25.625 2.328125 L 22.796875 -1.8125 C 26.15625 -3.96875 28.109375 -7.5625 28.109375 -11.84375 Z M 23.40625 -11.828125 C 23.40625 -7.03125 19.8125 -3.90625 14.65625 -3.90625 C 9.484375 -3.90625 5.859375 -7.03125 5.859375 -11.828125 L 5.859375 -11.875 C 5.859375 -16.71875 9.390625 -19.796875 14.65625 -19.796875 C 19.796875 -19.796875 23.40625 -16.671875 23.40625 -11.875 Z M 23.40625 -11.828125 " />
            </g>
        </g>
    </g>
    <g fill="#17171a" fill-opacity="1">
        <g transform="translate(212.033835, 28.785997)">
            <g>
                <path
                    d="M 12.640625 0.375 C 19.8125 0.375 23.671875 -3 23.671875 -9.484375 L 23.671875 -23.671875 L 19.09375 -23.671875 L 19.09375 -10.59375 C 19.09375 -5.953125 17.015625 -4 12.640625 -4 C 8.265625 -4 6.1875 -5.953125 6.1875 -10.59375 L 6.1875 -23.671875 L 1.578125 -23.671875 L 1.578125 -9.484375 C 1.578125 -3 5.421875 0.375 12.640625 0.375 Z M 12.640625 0.375 " />
            </g>
        </g>
    </g>
    <g fill="#17171a" fill-opacity="1">
        <g transform="translate(239.266576, 28.785997)">
            <g>
                <path
                    d="M 19.8125 0 L 19.8125 -4.296875 L 6.15625 -4.296875 L 6.15625 -10.0625 L 18.734375 -10.0625 L 18.734375 -14.125 L 6.15625 -14.125 L 6.15625 -19.375 L 19.765625 -19.375 L 19.765625 -23.671875 L 1.609375 -23.671875 L 1.609375 0 Z M 19.8125 0 " />
            </g>
        </g>
    </g>
    <g fill="#17171a" fill-opacity="1">
        <g transform="translate(262.237867, 28.785997)">
            <g>
                <path
                    d="M 17.78125 -9.515625 C 20.875 -10.625 22.46875 -13.15625 22.46875 -16.4375 L 22.46875 -16.46875 C 22.46875 -20.671875 19.640625 -23.671875 13.984375 -23.671875 L 1.609375 -23.671875 L 1.609375 0 L 6.15625 0 L 6.15625 -8.90625 L 13.21875 -8.90625 L 18.703125 0 L 23.734375 0 Z M 13.578125 -19.40625 C 16.109375 -19.40625 17.78125 -18.5 17.78125 -16.109375 L 17.78125 -16.078125 C 17.78125 -13.65625 16.109375 -12.671875 13.578125 -12.671875 L 6.15625 -12.671875 L 6.15625 -19.40625 Z M 13.578125 -19.40625 " />
            </g>
        </g>
    </g>
    <g fill="#17171a" fill-opacity="1">
        <g transform="translate(288.361454, 28.785997)">
            <g>
                <path
                    d="M 12.84375 -13.140625 L 5.859375 -23.671875 L 0.46875 -23.671875 L 10.484375 -8.84375 L 10.484375 0 L 15.0625 0 L 15.0625 -8.84375 L 25.078125 -23.671875 L 19.796875 -23.671875 Z M 12.84375 -13.140625 " />
            </g>
        </g>
    </g>
</svg>